<?xml version="1.0" encoding="UTF-8" standalone="no"?>
<svg
   height="48"
   width="48"
   version="1.1"
   id="svg6"
   sodipodi:docname="icon.svg"
   inkscape:version="1.2.1 (9c6d41e410, 2022-07-14)"
   xmlns:inkscape="http://www.inkscape.org/namespaces/inkscape"
   xmlns:sodipodi="http://sodipodi.sourceforge.net/DTD/sodipodi-0.dtd"
   xmlns="http://www.w3.org/2000/svg"
   xmlns:svg="http://www.w3.org/2000/svg">
  <defs
     id="defs10" />
  <sodipodi:namedview
     id="namedview8"
     pagecolor="#ffffff"
     bordercolor="#000000"
     borderopacity="0.25"
     inkscape:showpageshadow="2"
     inkscape:pageopacity="0.0"
     inkscape:pagecheckerboard="0"
     inkscape:deskcolor="#d1d1d1"
     showgrid="false"
     inkscape:zoom="12.212323"
     inkscape:cx="14.984864"
     inkscape:cy="20.880548"
     inkscape:window-width="1920"
     inkscape:window-height="1009"
     inkscape:window-x="-8"
     inkscape:window-y="-8"
     inkscape:window-maximized="1"
     inkscape:current-layer="svg6" />
  <path
     style="stroke-width:0.5"
     d="M 26,36 Q 23.9,36 22.075,35.2125 20.25,34.425 18.9,33.075 17.55,31.725 16.775,29.8875 16,28.05 16,25.95 16,23.85 16.775,22.0375 17.55,20.225 18.9,18.875 20.25,17.525 22.075,16.7625 23.9,16 26,16 q 2.1,0 3.925,0.7625 1.825,0.7625 3.175,2.1125 1.35,1.35 2.125,3.1625 Q 36,23.85 36,25.95 36,28.05 35.225,29.8875 34.45,31.725 33.1,33.075 31.75,34.425 29.925,35.2125 28.1,36 26,36 Z m 0,-1.45 q 0.875,-0.9 1.4625,-2.0625 Q 28.05,31.325 28.425,29.725 H 23.6 q 0.35,1.5 0.9375,2.7 0.5875,1.2 1.4625,2.125 z m -2.125,-0.3 Q 23.25,33.3 22.8,32.2 22.35,31.1 22.05,29.725 H 18.3 q 0.95,1.775 2.2,2.7875 1.25,1.0125 3.375,1.7375 z M 28.15,34.225 Q 29.95,33.65 31.3875,32.5 32.825,31.35 33.7,29.725 h -3.725 q -0.325,1.35 -0.7625,2.45 -0.4375,1.1 -1.0625,2.05 z m -10.35,-6 h 3.975 Q 21.7,27.55 21.6875,27.0125 21.675,26.475 21.675,25.95 q 0,-0.625 0.025,-1.1125 0.025,-0.4875 0.1,-1.0875 h -4 q -0.175,0.6 -0.2375,1.075 Q 17.5,25.3 17.5,25.95 q 0,0.65 0.0625,1.1625 0.0625,0.5125 0.2375,1.1125 z m 5.525,0 H 28.7 q 0.1,-0.775 0.125,-1.2625 0.025,-0.4875 0.025,-1.0125 0,-0.5 -0.025,-0.9625 Q 28.8,24.525 28.7,23.75 h -5.375 q -0.1,0.775 -0.125,1.2375 -0.025,0.4625 -0.025,0.9625 0,0.525 0.025,1.0125 0.025,0.4875 0.125,1.2625 z m 6.875,0 h 4 q 0.175,-0.6 0.2375,-1.1125 Q 34.5,26.6 34.5,25.95 34.5,25.3 34.4375,24.825 34.375,24.35 34.2,23.75 h -3.975 q 0.075,0.875 0.1,1.3375 0.025,0.4625 0.025,0.8625 0,0.55 -0.0375,1.0375 Q 30.275,27.475 30.2,28.225 Z M 29.95,22.25 H 33.7 Q 32.875,20.525 31.4375,19.375 30,18.225 28.125,17.75 q 0.625,0.925 1.0625,2 0.4375,1.075 0.7625,2.5 z m -6.35,0 h 4.85 Q 28.175,20.925 27.525,19.6875 26.875,18.45 26,17.5 q -0.8,0.675 -1.35,1.775 -0.55,1.1 -1.05,2.975 z m -5.3,0 h 3.775 q 0.275,-1.35 0.7,-2.4125 0.425,-1.0625 1.075,-2.0625 -1.875,0.475 -3.275,1.6 -1.4,1.125 -2.275,2.875 z"
     id="path2" />
  <path
     d="M39 40H13q-1.2 0-2.1-.9-.9-.9-.9-2.1V5q0-1.2.9-2.1.9-.9 2.1-.9h17.4L42 13.6V37q0 1.2-.9 2.1-.9.9-2.1.9ZM28.9 14.9V5H13v32h26V14.9ZM7 46q-1.2 0-2.1-.9Q4 44.2 4 43V12.05h3V43h24.9v3Zm6-41v9.9V5v32V5Z"
     id="path4" />
</svg>
